#!OML:ASF F:\VICON\USERDATA\INSTALL\rory3\rory3.ASF
:FULLY-SPECIFIED
:DEGREES
71
root -0.955524982931196 17.753912508221106 6.0502403396144 4.019589018679976 -1.8461686516410154 -2.8004653797647086
lfemur -34.42189175370136 6.896920121469204 -17.370636093056387
ltibia 91.35714703716725
lfoot 9.190523659030104 -11.418766783144493
ltoes -30.317490781212047
rfemur -10.565064825815922 5.095624971725517 30.780288210100547
rtibia 46.776389190458985
rfoot 14.918111139942614 -7.83297502286089
rtoes -9.385916583450317
lowerback 15.276120830912928 2.2764565721929744 3.688245251793287
upperback -0.6003200362602527 3.9075753484473124 1.1613615877545433
thorax -8.479668798610964 1.6982614924040411 -2.467111258861072
lowerneck -18.622537654526447 -5.161625012453365 -1.5350934197753723
upperneck 14.459780196282704 -7.497403759981741 3.5979347450269077
head 8.23210099850771 -3.1884071633860507 0.5764899004215492
lclavicle -2.0490533153217894e-17 4.2580992003918344e-16
lhumerus -43.336572037431814 -10.917453720804055 92.09938765536161
lradius 111.0863235272237
lwrist 35.251003494869366
lhand -25.120176922571556 3.027181586663027
lfingers 7.125019999999998
lthumb 1.050402863553173 31.748108750927727
rclavicle -2.0490533382243046e-17 4.258099198878722e-16
rhumerus -54.043488514464364 10.151700618043893 -94.0323526036658
rradius 93.9795648451661
rwrist -21.44129471405167
rhand -19.31422739611674 43.3669341744687
rfingers 7.125019999999998
rthumb 6.5445953879204435 13.436738888515203
72
root -0.9534413856573484 17.73872492292855 6.550937164806277 3.906772591656373 -1.6132531545128397 -2.6696437831322424
lfemur -35.456485870058145 6.795423625357774 -17.576263473210396
ltibia 90.84831045106569
lfoot 8.812096943849195 -11.109488963387243
ltoes -31.730010213382226
rfemur -8.839296717934847 5.273081471517971 30.780410268088165
rtibia 47.572505687204725
rfoot 15.069507608312733 -7.897844957803494
rtoes -7.441449132379446
lowerback 15.303562216113454 2.3108938953971263 3.626698406283087
upperback -0.5655509955310115 3.9267340717581223 1.0156470810809672
thorax -8.448866757273535 1.7067806423146896 -2.4673585663508693
lowerneck -18.623365848646433 -5.233880791776158 -1.5446627881067505
upperneck 14.324704553991582 -7.602763080055696 3.611185364648256
head 8.171748018922425 -3.237096964589447 0.5802696893422431
lclavicle -2.0490533151748434e-17 4.2580992003982606e-16
lhumerus -43.34445179071997 -11.060689804576707 92.2673076463769
lradius 111.15957001844639
lwrist 35.115589666489235
lhand -25.44455397565831 1.9930167632348632
lfingers 7.125019999999998
lthumb 0.835171468902741 31.449136373910665
rclavicle -2.0490533381636933e-17 4.2580991988793967e-16
rhumerus -53.92119287731552 9.839630042148817 -93.88909083546763
rradius 94.33465060694256
rwrist -21.234260634183613
rhand -19.2974709852917 43.162302135946746
rfingers 7.125019999999998
rthumb 6.634884320834978 13.355931667453953
73
root -0.9430795324028789 17.72203196020187 7.024838665833118 3.800168210366319 -1.3884176319087684 -2.5321338545909806
lfemur -36.318881763531124 6.692473168889208 -17.81361488921176
ltibia 90.09305944249033
lfoot 7.969502709265325 -11.110800791181251
ltoes -33.3207289405393
rfemur -7.098313956346855 5.4019290942874045 30.812757725540017
rtibia 48.52428092883669
rfoot 14.938944473226742 -7.774469398987935
rtoes -5.71000965244025
lowerback 15.294092507105875 2.3413081074523605 3.574484110135417
upperback -0.5348630174658149 3.9480367937731113 0.8556446745502028
thorax -8.410284936532628 1.7222727677342404 -2.4827472729883966
lowerneck -18.634773892651364 -5.306759892108165 -1.5569827144859638
upperneck 14.157699677936561 -7.709632485053968 3.646686708210173
head 8.091352773931636 -3.2854399275808315 0.5933987370967425
lclavicle -2.049053315122472e-17 4.2580992003977725e-16
lhumerus -43.2466236396486 -11.196104046615494 92.43253907736053
lradius 111.04925631239597
lwrist 34.93442981371234
lhand -25.761569490479165 1.4455813234179131
lfingers 7.125019999999998
lthumb 1.0368222107020366 32.274574626526004
rclavicle -2.0490533383069895e-17 4.2580991988662213e-16
rhumerus -53.77724725539405 9.502948106557106 -93.76454461140919
rradius 94.66292764898847
rwrist -21.00675951344497
rhand -19.287029427253586 42.935026549463196
rfingers 7.125019999999998
rthumb 6.6931522302493835 13.17257528506248
74
root -0.935162795140164 17.696806379319526 7.428942280207541 3.693049738154467 -1.168710566595955 -2.4124983739011583
lfemur -37.0670906162656 6.591499388716004 -18.040646983072886
ltibia 89.07129338097516
lfoot 6.6280233763707095 -11.245559625158899
ltoes -34.40274516325664
rfemur -5.393075737167932 5.573699647821096 30.834890731575737
rtibia 49.64690860357083
rfoot 14.29256504944999 -7.6451136856991315
rtoes -4.972235018833836
lowerback 15.297612959806273 2.3696207189660337 3.514458612601172
upperback -0.5193277880801729 3.965626743667372 0.7178639620580836
thorax -8.397607212068445 1.7313963704927993 -2.4885582849591974
lowerneck -18.666093286646834 -5.368555080761003 -1.5663262888019156
upperneck 13.95373012815259 -7.796772853188051 3.6990232891994532
head 7.997320822397941 -3.319520430788228 0.6138455577071812
lclavicle -2.0490533147219516e-17 4.2580992004187237e-16
lhumerus -43.298260364395645 -11.28699966787913 92.59243757920194
lradius 110.94672341630965
lwrist 34.77387225746443
lhand -25.970327011694383 1.5366625656329003
lfingers 7.125019999999998
lthumb 0.649059134747966 31.822805546420813
rclavicle -2.0490533385292862e-17 4.258099198846929e-16
rhumerus -53.600031622287034 9.180550641599494 -93.66607973520068
rradius 94.9934962270697
rwrist -20.665055451106685
rhand -19.290447239068325 42.66724550972734
rfingers 7.125019999999998
rthumb 6.693173103631128 12.811273110619283
75
root -0.9286429670074331 17.669726059783226 7.841299922139075 3.588195627196429 -0.95505013342462 -2.296044866585175
lfemur -37.68597292153046 6.4955545488460205 -18.29050474304804
ltibia 87.77437675891176
lfoot 6.112119638797713 -10.995633629531342
ltoes -32.904929004563144
rfemur -3.755646860499043 5.73518763686546 30.856725252939256
rtibia 50.92482992284127
rfoot 13.47919991171467 -7.506843873932741
rtoes -4.185128682038613
lowerback 15.31357030075295 2.392770662090565 3.4346122728406874
upperback -0.48395474045259523 3.963745263149249 0.5866917806227006
thorax -8.377022882074098 1.731651113495876 -2.485005468549175
lowerneck -18.767705280557593 -5.415859210549994 -1.5758768834214372
upperneck 13.751246616947762 -7.855610617793691 3.7527762407191165
head 7.901563713059578 -3.3410261018422185 0.6365146896196965
lclavicle -2.049053314366533e-17 4.2580992004363917e-16
lhumerus -43.30690052040876 -11.331068165557218 92.63748210496159
lradius 110.77775284511571
lwrist 34.61095857153737
lhand -25.80719420342692 2.482253495960661
lfingers 7.125019999999998
lthumb 0.5242510477979545 31.994625665420088
rclavicle -2.0490533386210902e-17 4.2580991988356835e-16
rhumerus -53.355009066041504 8.90571265176154 -93.59230338512006
rradius 95.30064650060419
rwrist -20.13016326943267
rhand -19.30313381995917 42.38868220766017
rfingers 7.125019999999998
rthumb 6.663879183935231 12.429112678863078
76
root -0.920192150706878 17.640443276074055 8.270628340831632 3.4840498544462126 -0.7477823600307865 -2.167606968865314
lfemur -38.16851491038282 6.409936536724547 -18.57718911636751
ltibia 86.22028194699365
lfoot 5.821678740857438 -10.592855266615377
ltoes -30.225895541438714
rfemur -2.178013890755089 5.883609666510556 30.842854570607567
rtibia 52.354130059780914
rfoot 12.332653442656667 -7.402950693981403
rtoes -2.710807190492736
lowerback 15.321526811557753 2.411661797311876 3.344242514805889
upperback -0.44432923610192154 3.9574433699892686 0.46076851753389797
thorax -8.3660550787313 1.7298126211803289 -2.4796539400895896
lowerneck -18.87219876097202 -5.447850933588959 -1.5803249984364192
upperneck 13.525949430295599 -7.893674107836023 3.8012869794594706
head 7.797501945157164 -3.355281039420806 0.658724641137541
lclavicle -2.04905331403882e-17 4.2580992004536204e-16
lhumerus -43.3172841013782 -11.297606771029445 92.67780057717239
lradius 110.55153275163671
lwrist 34.4900129171744
lhand -25.93562245239167 3.3457120640183873
lfingers 7.125019999999998
lthumb 0.10563188885441788 31.659317335942557
rclavicle -2.049053338863844e-17 4.2580991988161005e-16
rhumerus -53.02456893255587 8.689499566450724 -93.53040610329313
rradius 95.58835645223644
rwrist -19.68207577355931
rhand -19.316724717642412 42.09531156668171
rfingers 7.125019999999998
rthumb 6.641642759001753 12.089411003890111
77
root -0.9038392682928775 17.595676473061552 8.766077077923088 3.3699232033966258 -0.5273911136162557 -1.962925586393397
lfemur -38.49973899107092 6.317691028274342 -18.962048299566256
ltibia 84.45379048939566
lfoot 5.675811875995118 -10.072539430827684
ltoes -27.39946746930443
rfemur -0.7161429124028462 5.9701218564194996 30.712914942191794
rtibia 54.00916446945562
rfoot 11.22258847752732 -7.183993936744892
rtoes -0.4764055047330862
lowerback 15.307342142644123 2.422907506678114 3.2041957699533468
upperback -0.4128555784619127 3.930872445179602 0.31778348322544225
thorax -8.373777887724643 1.7195372533798934 -2.470921413785342
lowerneck -18.872028411840066 -5.462321540320518 -1.579008381504556
upperneck 13.29076679233647 -7.901489669580071 3.845297955282004
head 7.664641537786899 -3.3611620539831364 0.6823335613651846
lclavicle -2.0490533136996668e-17 4.258099200472994e-16
lhumerus -43.27943678653129 -11.20230075001183 92.76898624080253
lradius 110.22339501117393
lwrist 34.411095004728324
lhand -26.516589435094733 2.969077980749295
lfingers 7.125019999999998
lthumb 0.08745999794629311 32.4314601276193
rclavicle -2.0490533391979275e-17 4.258099198792128e-16
rhumerus -52.671566714242616 8.513884930782119 -93.49475244102007
rradius 95.87311635510771
rwrist -19.38814258243518
rhand -19.31949732863937 41.80804732113979
rfingers 7.125019999999998
rthumb 6.641925589000924 11.818586570366433
